PathFileType	4	(X/Y/Z)	C:/Users/beibeiliu/ov580/test_trc/User1\sequence.4_training_dense_left.trc
DataRate	CameraRate	NumFrames	NumMarkers	Units	OrigDataRate	OrigDataStartFrame	OrigNumFrames
120	120	22	19	mm	120	26	50
Frame#	Time	ThumbCMC			ThumbMCP			ThumbIP			ThumbTip			IndexMCP			IndexPIP			IndexTip			MiddleMCP			MiddlePIP			MiddleTip			RingMCP			RingPIP			RingTip			PinkyMCP			PinkyPIP			PinkyTip			BackHand1			BackHand2			BackHand3	
		X0	Y0	Z0	X1	Y1	Z1	X2	Y2	Z2	X3	Y3	Z3	X4	Y4	Z4	X5	Y5	Z5	X6	Y6	Z6	X7	Y7	Z7	X8	Y8	Z8	X9	Y9	Z9	X10	Y10	Z10	X11	Y11	Z11	X12	Y12	Z12	X13	Y13	Z13	X14	Y14	Z14	X15	Y15	Z15	X16	Y16	Z16	X17	Y17	Z17	X18	Y18	Z18	
25	0.208333	-111.512	69.0007	129.016	-73.5276	59.8528	116.643	-58.588	45.9574	90.9188	-53.3167	25.5217	73.1826	-80.1964	66.6072	44.1338	-62.6989	57.4851	27.8035	-48.0153	45.9791	10.5839	-84.6678	35.8386	46.0873	-68.3585	16.5053	71.1854	-93.262	29.7666	99.8735	-100.337	13.7515	53.7239	-89.5061	3.46051	86.3525	-112.11	22.063	105.249	-116.49	4.3072	60.7103	-106.037	0.43431	87.7057	-121.562	23.4652	103.553	-153.762	48.843	73.6269	-169.609	56.0579	101.15	-140.442	75.3434	99.025	
26	0.216667	-126.008	93.6219	112.629	-89.7709	95.9439	98.6274	-72.4805	80.9561	79.8509	-59.5128	59.7612	70.63	-99.8577	74.8576	33.6454	-83.1434	61.1772	16.9183	-64.6727	51.4046	3.11312	-85.0284	44.4654	44.1734	-61.8209	46.7275	68.004	-85.0608	54.5488	98.2073	-86.29	28.5922	58.638	-72.9799	33.5401	90.156	-101.879	45.1768	106.639	-99.2777	8.16183	70.7086	-87.2227	22.6004	94.902	-110.51	37.3949	108.578	-148.663	33.0539	72.3934	-172.974	37.6795	104.186	-153.341	71.9482	87.7818	
27	0.225	-151.934	91.099	95.9679	-122.312	107.363	74.543	-100.955	95.2158	50.2492	-79.2699	78.1193	42.6395	-136.694	56.3961	21.4465	-120.982	47.9808	-4.01758	-100.787	35.5472	-16.4993	-105.59	48.3607	29.192	-79.1743	59.1987	48.5567	-102.244	71.9977	81.1107	-98.0914	30.4699	49.3318	-82.0345	51.0103	74.5419	-104.433	55.5301	95.2565	-98.2869	13.7224	66.4466	-86.9075	36.3357	80.352	-113.115	45.7718	98.7906	-154.62	25.2549	77.7687	-169.949	26.8139	111.771	-170.175	55.9551	81.6614	
28	0.233333	-172.572	86.9965	82.555	-148.945	97.0398	59.0097	-131.915	89.1196	33.5057	-112.128	75.735	21.1921	-174.285	39.4588	12.9837	-164.431	26.8506	-9.8982	-141.64	18.3718	-34.369	-140.482	38.0664	16.6407	-109.405	58.5373	24.4872	-117.756	67.3575	58.5236	-121.404	28.1552	33.4221	-103.672	52.9022	48.7839	-118.97	59.336	75.674	-118.341	13.4395	50.472	-103.213	37.6093	63.146	-124.932	47.574	85.6894	-167.929	11.6785	74.1142	-177.852	22.5536	112.935	-189.792	45.5387	83.2217	
29	0.241667	-173.687	88.0183	85.1004	-152.997	93.3514	53.3585	-140.113	91.0931	25.9696	-123.668	72.3987	8.60378	-195.249	47.5389	13.6444	-192.235	37.1742	-15.5035	-173.603	32.4532	-42.5542	-159.521	36.8649	8.01911	-127.911	52.9336	13.2344	-132.046	64.8796	52.2216	-144.361	26.4592	23.2001	-119.53	44.9234	36.0174	-126.543	51.2346	67.0033	-140.416	12.0094	39.0225	-119.58	32.5434	49.2883	-136.052	44.6547	74.2671	-186.209	19.8916	72.3939	-186.663	24.9256	106.306	-199.837	52.47	83.3288	
30	0.25	-154.187	87.7913	90.9672	-127.466	93.4317	61.4551	-119.701	82.5762	38.4237	-113.964	63.033	16.0234	-182.442	82.2014	10.4384	-178.544	71.7733	-12.7696	-160.58	61.6812	-41.2191	-160.074	54.1707	10.9548	-123.402	50.2236	17.2611	-126.473	53.1702	54.8241	-149.482	33.8178	19.832	-120.272	34.2731	38.7085	-127.998	45.2665	68.6448	-152.783	15.268	33.4624	-128.199	21.4721	45.4777	-137.611	38.0049	77.1851	-196.448	35.0215	66.1619	-195.172	35.5959	104.667	-192.469	70.2038	85.4809	
31	0.258333	-128.462	79.7656	110.511	-94.8648	73.2387	86.0815	-89.7302	63.4004	61.4717	-84.8652	45.3353	36.3771	-133.25	92.529	23.2278	-122.129	88.734	0.968461	-107.106	75.7361	-22.4467	-127.358	60.3944	21.3231	-103.291	40.6198	35.6247	-112.865	44.1401	73.6	-138.518	36.0271	30.3393	-114.332	23.7035	47.8511	-122.886	30.9657	81.3432	-153.803	20.7081	37.948	-127.892	11.9272	55.9116	-132.464	26.5917	82.8595	-183.94	58.46	68.5392	-190.118	54.8194	106.076	-164.543	86.1674	93.517	
32	0.266667	-117.344	74.213	125.546	-83.3112	60.1541	114.781	-67.0894	45.9609	93.1243	-65.4443	26.253	72.2842	-89.503	78.9649	48.6336	-71.6087	66.4756	29.8678	-56.3318	53.5396	11.4959	-99.4923	45.2285	43.3354	-80.9485	21.7239	63.2295	-99.5077	33.4779	96.4962	-111	26.4985	49.1118	-98.3449	9.10382	74.6224	-114.48	22.4736	101.619	-131.888	10.719	53.5743	-114.429	6.40543	77.7666	-127.925	26.0414	101.202	-162.046	57.6509	69.1529	-179.498	59.9853	104.071	-149.845	79.9718	97.7166	
33	0.275	-118.748	84.5182	129.744	-80.0233	73.7682	126.863	-58.1612	55.7429	109.856	-50.4985	34.7308	100.697	-73.9135	67.2649	59.5914	-52.5685	57.0841	50.7915	-31.7354	46.6251	39.1559	-75.4491	37.7886	62.6706	-62.3522	24.0659	90.2837	-87.9792	37.9375	115.18	-86.8956	18.4386	71.2399	-80.3117	12.468	101.151	-105.992	29.8467	118.402	-104.393	-0.101828	75.8643	-96.7936	7.51107	101.876	-116.393	27.6519	116.832	-144.737	46.855	71.3207	-169.821	51.297	95.2057	-144.149	76.3693	91.6035	
34	0.283333	-128.893	96.0283	118.131	-88.3846	102.462	119.07	-64.1672	88.8795	107.724	-47.4634	66.8048	100.843	-78.1988	78.7637	52.2133	-50.507	69.6717	42.7751	-32.9214	61.5627	35.347	-65.8752	53.2703	64.4395	-52.6315	51.5996	96.9324	-86.0158	61.7332	116.061	-72.7445	30.6578	76.8715	-64.3066	40.5127	109.947	-96.5602	47.9672	121.559	-86.969	11.6538	85.0748	-78.3749	27.2976	112.441	-106.096	43.2305	117.501	-136.031	39.3319	74.0165	-165.117	40.2864	99.445	-146.215	70.373	85.3872	
35	0.291667	-140.112	101.195	109.269	-103.673	114.018	95.2243	-80.1503	105.902	84.1141	-57.714	88.7443	79.5159	-99.4266	77.0682	33.5313	-74.3321	73.3814	17.5493	-55.2177	64.8872	9.60653	-74.3681	59.3928	51.8534	-57.5557	74.5922	78.1532	-86.2609	80.0326	103.526	-72.514	42.7264	69.0772	-62.7934	61.2757	97.9642	-91.0891	64.3646	112.382	-74.2635	26.2985	83.217	-71.7044	47.2384	105.213	-99.4667	52.3851	115.075	-134.549	30.9171	76.8525	-159.205	31.4443	106.338	-152.854	63.9424	87.3497	
36	0.3	-154.817	94.4226	98.0728	-126.547	106.399	73.186	-105.819	101.416	56.1239	-78.902	90.8381	43.2585	-133.108	51.6792	24.3725	-118.794	43.5304	4.58768	-97.0992	35.4954	-12.5871	-102.364	48.9143	33.8606	-78.5726	71.6219	45.6076	-95.4114	78.1599	81.5091	-91.2225	36.9067	53.4355	-75.0826	61.5402	69.5154	-101.817	68.6448	95.544	-85.5804	27.3996	70.2239	-80.334	50.8799	83.1843	-106.009	55.6284	103.086	-142.254	19.2553	85.9377	-159.071	24.963	115.196	-164.705	51.0931	89.5595	
37	0.308333	-166.565	84.0006	90.7639	-145.443	94.6257	59.5386	-129.418	90.0038	39.8852	-107.562	80.2247	20.8097	-165.42	33.3363	18.8421	-157.62	22.1869	-3.84438	-141.69	15.4356	-26.0317	-130.703	32.3869	24.9499	-103.754	56.1601	27.4824	-111.36	69.0314	62.8346	-113.676	23.8761	41.1033	-96.5449	54.7889	51.1013	-111.785	60.5928	83.14	-106.99	11.604	59.0364	-93.5927	39.8616	65.6956	-115.074	54.115	84.2603	-159.493	14.8389	85.8687	-165.061	17.3301	119.535	-181.315	44.7913	88.15	
38	0.316667	-170.621	84.0189	92.3508	-150.125	97.9164	59.5904	-139.174	90.209	33.1855	-123.716	75.5604	17.7622	-189.941	45.7853	21.3745	-188.425	35.1834	-8.6086	-172.801	23.6084	-31.2987	-156.172	39.1614	16.4131	-122.725	53.7027	19.0033	-124.894	64.4365	58.4168	-137.493	26.0121	29.7584	-112.435	46.611	40.0678	-120.38	55.8789	71.6178	-129.232	11.078	46.5527	-110.379	31.8331	54.3678	-127.1	47.4747	82.7396	-175.287	14.601	81.1978	-180.097	22.9814	114.02	-194.081	50.633	89.7915	
39	0.325	-154.234	91.1153	101.011	-131.074	97.3839	72.3188	-123.515	92.036	39.7345	-117.475	73.0185	16.8676	-185.473	82.6451	18.813	-185.596	79.3187	-4.40397	-175.375	70.3968	-34.1649	-157.231	59.4508	14.5418	-123.075	59.2873	22.7382	-123.079	58.5285	58.6611	-151.065	41.4982	25.772	-119.213	43.4775	39.8581	-124.73	46.5032	74.4228	-148.631	19.7206	37.0468	-124.699	29.0669	49.8985	-135.052	40.9396	79.4229	-192.61	40.5098	75.562	-191.252	36.2243	109.928	-189.009	74.9387	95.3341	
40	0.333333	-121.325	83.9658	111.956	-100.541	77.8612	81.5535	-94.7899	74.4333	52.0386	-96.9313	60.1857	25.9577	-146.457	105.843	29.2283	-141.578	106.058	4.61222	-139.369	97.2214	-21.3725	-140.362	74.8619	22.3598	-114.361	52.7972	25.4698	-113.688	48.3164	64.6875	-149.099	51.6501	27.3507	-121.628	34.1242	37.8682	-124.742	35.773	74.4303	-162.246	37.6872	35.5604	-136.699	23.2745	44.7973	-134.071	34.2312	76.8556	-187.145	66.8747	75.2163	-189.499	60.1483	112.583	-166.347	89.6063	103.522	
41	0.341667	-103.166	62.1171	122.077	-85.1451	46.0046	95.6594	-75.5512	41.8796	61.8499	-81.821	33.0107	37.6216	-106.856	92.7137	41.4052	-101.54	90.3911	16.6089	-99.3065	79.7869	-10.0468	-120.558	67.2241	27.058	-103.555	36.9475	25.1201	-108.181	21.426	61.4163	-140.15	50.2781	29.92	-118.973	23.1711	34.5492	-118.688	16.8051	68.3536	-159.417	38.5795	36.332	-137.855	17.7648	41.6407	-132.18	17.5529	76.2374	-166.151	74.2624	83.4112	-172.013	68.1405	118.073	-138.793	84.5276	112.866	
42	0.35	-96.2584	45.5098	124.538	-73.3133	26.3202	104.644	-68.5202	19.5125	73.8204	-66.1217	8.41147	53.4408	-85.0713	71.4691	46.1232	-77.768	61.315	17.7729	-72.5718	45.3032	-6.6425	-108.539	57.9142	27.6304	-98.3881	27.5672	15.9718	-94.7168	0.661641	46.4996	-132.44	46.0208	30.1392	-120.264	13.2041	22.8499	-114.59	-2.66547	50.9605	-155.769	36.3112	38.0419	-137.232	13.1809	31.5016	-122.412	1.4643	58.1614	-153.183	67.7502	88.6424	-163.01	63.6522	120.466	-126.191	73.0465	114.735	
43	0.358333	-92.5622	43.0597	127.469	-72.6924	23.9634	108.466	-58.3135	13.7547	88.0902	-48.6558	-0.308157	63.6309	-85.233	61.3928	41.5558	-72.5286	52.8865	20.0677	-69.219	33.3442	-1.7707	-112.004	59.5731	29.1699	-95.5763	36.4689	3.26884	-91.2807	1.53973	9.76519	-131.508	47.7948	25.8311	-121.975	25.4269	6.80929	-114.246	-7.04798	18.0687	-154.093	35.3968	36.5966	-143.849	15.4113	20.925	-122.909	-5.15945	27.7739	-148.677	63.7516	85.4117	-163.781	60.9529	118.256	-122.16	68.9834	113.987	
44	0.366667	-96.9555	45.0561	126.89	-68.6186	26.0909	111.948	-49.5113	17.2974	88.991	-42.3726	4.93954	71.5493	-85.0398	61.9785	42.9089	-75.9078	52.9789	17.7933	-69.8914	29.5313	-4.43963	-112.796	62.6935	30.1331	-104.196	49.1132	0.371685	-91.5	17.2337	-15.0421	-136.037	48.8987	24.2715	-127.012	34.255	1.40013	-116.26	2.76698	-5.52776	-158.586	33.4758	40.6939	-149.738	14.3795	17.2821	-126.443	-3.94617	10.6326	-151.741	60.5096	86.3344	-159.695	60.3647	118.073	-122.054	70.7897	109.226	
45	0.375	-95.4927	48.0486	124.807	-69.3513	30.0918	108.851	-54.8197	20.7249	91.534	-39.9828	9.65522	77.8416	-87.5321	63.81	40.8497	-76.2063	52.3215	15.4174	-70.1396	30.8422	-3.68372	-115.622	62.4368	25.8065	-108.199	48.7671	-4.09285	-96.8906	28.45	-23.2881	-135.585	50.2445	27.2288	-128.535	36.5408	1.8703	-116.47	8.86573	-14.5871	-159.859	29.3692	36.6646	-154.168	14.6892	18.4855	-136.064	1.16666	3.64222	-157.952	58.6581	85.566	-163.357	60.9863	119.818	-126.878	70.2733	109.933	
46	0.383333	-94.5352	51.5565	123.218	-69.1543	32.4624	110.733	-54.7515	24.1143	90.4291	-42.5405	12.2651	70.7869	-89.8179	66.5534	41.9084	-81.2859	56.4034	16.4475	-75.2957	32.4261	-3.87167	-116.103	65.4115	26.6401	-106.642	53.5783	-4.0669	-98.8272	33.2089	-24.1298	-142.304	49.0883	27.4804	-128.402	38.6101	1.18796	-120.632	15.2265	-15.0355	-160.413	29.8332	36.6048	-153.539	20.5096	20.6409	-137.356	3.97692	4.72611	-155.233	60.825	84.9912	-165.979	59.1108	119.415	-127.461	71.5404	109.694	
